<svg width="29" height="18" viewBox="0 0 29 18" fill="none" xmlns="http://www.w3.org/2000/svg">
<path opacity="0.5" fill-rule="evenodd" clip-rule="evenodd" d="M14.593 15.1539C13.0842 16.4257 11.1271 17.1935 8.98846 17.1935C4.21651 17.1935 0.348083 13.3711 0.348083 8.6559C0.348083 3.94074 4.21651 0.118347 8.98846 0.118347C11.1271 0.118347 13.0842 0.886092 14.593 2.15787C16.1018 0.886097 18.059 0.118355 20.1976 0.118355C24.9696 0.118355 28.838 3.94075 28.838 8.65591C28.838 13.3711 24.9696 17.1935 20.1976 17.1935C18.059 17.1935 16.1018 16.4257 14.593 15.1539Z" fill="white"/>
<path opacity="0.5" fill-rule="evenodd" clip-rule="evenodd" d="M14.593 15.1539C16.4508 13.588 17.6288 11.2579 17.6288 8.6559C17.6288 6.05392 16.4508 3.7238 14.593 2.15785C16.1018 0.886086 18.059 0.118347 20.1976 0.118347C24.9695 0.118347 28.838 3.94074 28.838 8.6559C28.838 13.3711 24.9695 17.1935 20.1976 17.1935C18.059 17.1935 16.1018 16.4257 14.593 15.1539Z" fill="white"/>
<path fill-rule="evenodd" clip-rule="evenodd" d="M14.5931 15.1539C16.4509 13.588 17.6289 11.2579 17.6289 8.65592C17.6289 6.05395 16.4509 3.72384 14.5931 2.1579C12.7353 3.72384 11.5573 6.05395 11.5573 8.65592C11.5573 11.2579 12.7353 13.588 14.5931 15.1539Z" fill="white"/>
</svg>
