<svg width="118" height="32" viewBox="0 0 118 32" fill="none" xmlns="http://www.w3.org/2000/svg">
<g id="Label (New)">
<rect id="Rectangle 12" width="118" height="32" rx="2" fill="#6868D9"/>
<path id="Just Released!" d="M11.532 17.97C11.6533 18.054 11.868 18.1567 12.176 18.278C12.484 18.39 12.848 18.446 13.268 18.446C13.632 18.446 13.9307 18.3853 14.164 18.264C14.3973 18.1333 14.5747 17.942 14.696 17.69C14.8267 17.438 14.9107 17.1113 14.948 16.71C14.9947 16.3087 15.018 15.828 15.018 15.268V10.06H16.95V15.114C16.95 15.8607 16.908 16.542 16.824 17.158C16.74 17.774 16.5767 18.306 16.334 18.754C16.0913 19.202 15.7227 19.5473 15.228 19.79C14.7427 20.0327 14.094 20.154 13.282 20.154C12.834 20.154 12.4327 20.1027 12.078 20C11.7233 19.8973 11.3967 19.7433 11.098 19.538L11.532 17.97ZM18.5653 17.256V12.664H20.4413V16.85C20.4413 17.41 20.5439 17.8347 20.7493 18.124C20.9546 18.404 21.2579 18.544 21.6593 18.544C21.9019 18.544 22.1399 18.4973 22.3733 18.404C22.6159 18.3013 22.8353 18.152 23.0313 17.956C23.2366 17.76 23.4093 17.5127 23.5493 17.214V12.664H25.4253V17.9C25.4253 18.096 25.4579 18.236 25.5233 18.32C25.5979 18.404 25.7146 18.4553 25.8733 18.474V20C25.6866 20.028 25.5279 20.0467 25.3973 20.056C25.2759 20.0747 25.1639 20.084 25.0613 20.084C24.7253 20.084 24.4499 20.0093 24.2353 19.86C24.0299 19.7013 23.9086 19.4867 23.8713 19.216L23.8293 18.628C23.5026 19.1227 23.0826 19.5007 22.5693 19.762C22.0559 20.014 21.4913 20.14 20.8753 20.14C20.1193 20.14 19.5453 19.8973 19.1533 19.412C18.7613 18.9173 18.5653 18.1987 18.5653 17.256ZM29.9915 20.14C29.3662 20.14 28.7689 20.0373 28.1995 19.832C27.6302 19.6267 27.1402 19.3233 26.7295 18.922L27.4015 17.704C27.8402 18.0587 28.2695 18.32 28.6895 18.488C29.1189 18.656 29.5295 18.74 29.9215 18.74C30.2855 18.74 30.5749 18.6747 30.7895 18.544C31.0135 18.4133 31.1255 18.2173 31.1255 17.956C31.1255 17.7787 31.0649 17.6433 30.9435 17.55C30.8222 17.4473 30.6449 17.3587 30.4115 17.284C30.1875 17.2093 29.9122 17.1253 29.5855 17.032C29.0442 16.8547 28.5915 16.682 28.2275 16.514C27.8635 16.346 27.5882 16.136 27.4015 15.884C27.2242 15.6227 27.1355 15.2913 27.1355 14.89C27.1355 14.4047 27.2569 13.9893 27.4995 13.644C27.7515 13.2893 28.0969 13.014 28.5355 12.818C28.9835 12.622 29.5062 12.524 30.1035 12.524C30.6262 12.524 31.1209 12.608 31.5875 12.776C32.0542 12.9347 32.4789 13.196 32.8615 13.56L32.1055 14.75C31.7322 14.4607 31.3775 14.2507 31.0415 14.12C30.7055 13.98 30.3649 13.91 30.0195 13.91C29.8235 13.91 29.6369 13.9333 29.4595 13.98C29.2915 14.0267 29.1515 14.106 29.0395 14.218C28.9369 14.3207 28.8855 14.47 28.8855 14.666C28.8855 14.8433 28.9322 14.9833 29.0255 15.086C29.1282 15.1793 29.2775 15.2633 29.4735 15.338C29.6789 15.4127 29.9262 15.4967 30.2155 15.59C30.8035 15.758 31.2982 15.9307 31.6995 16.108C32.1102 16.2853 32.4182 16.5047 32.6235 16.766C32.8289 17.018 32.9315 17.368 32.9315 17.816C32.9315 18.544 32.6655 19.1133 32.1335 19.524C31.6015 19.9347 30.8875 20.14 29.9915 20.14ZM38.5625 19.622C38.4038 19.6873 38.2125 19.762 37.9885 19.846C37.7645 19.93 37.5218 19.9953 37.2605 20.042C37.0085 20.098 36.7518 20.126 36.4905 20.126C36.1452 20.126 35.8278 20.0653 35.5385 19.944C35.2492 19.8227 35.0158 19.6313 34.8385 19.37C34.6705 19.0993 34.5865 18.7493 34.5865 18.32V14.106H33.6205V12.664H34.5865V10.284H36.4625V12.664H38.0025V14.106H36.4625V17.69C36.4718 17.942 36.5418 18.124 36.6725 18.236C36.8032 18.348 36.9665 18.404 37.1625 18.404C37.3585 18.404 37.5498 18.3713 37.7365 18.306C37.9232 18.2407 38.0725 18.1847 38.1845 18.138L38.5625 19.622ZM43.0848 20V10.06H47.4808C47.9382 10.06 48.3582 10.1533 48.7408 10.34C49.1328 10.5267 49.4688 10.7787 49.7488 11.096C50.0382 11.4133 50.2575 11.768 50.4068 12.16C50.5655 12.552 50.6448 12.9533 50.6448 13.364C50.6448 13.784 50.5702 14.19 50.4208 14.582C50.2808 14.9647 50.0755 15.3007 49.8048 15.59C49.5342 15.8793 49.2168 16.1033 48.8528 16.262L51.1208 20H48.9928L46.9488 16.668H45.0168V20H43.0848ZM45.0168 14.974H47.4388C47.6815 14.974 47.8962 14.904 48.0828 14.764C48.2695 14.6147 48.4188 14.4187 48.5308 14.176C48.6428 13.9333 48.6988 13.6627 48.6988 13.364C48.6988 13.0467 48.6335 12.7713 48.5028 12.538C48.3722 12.2953 48.2042 12.104 47.9988 11.964C47.8028 11.824 47.5882 11.754 47.3548 11.754H45.0168V14.974ZM55.3693 20.14C54.7813 20.14 54.2493 20.042 53.7733 19.846C53.2973 19.6407 52.8913 19.3653 52.5553 19.02C52.2193 18.6653 51.9579 18.264 51.7713 17.816C51.5939 17.3587 51.5053 16.878 51.5053 16.374C51.5053 15.674 51.6593 15.0347 51.9673 14.456C52.2846 13.8773 52.7326 13.4153 53.3113 13.07C53.8993 12.7153 54.5899 12.538 55.3833 12.538C56.1859 12.538 56.8719 12.7153 57.4413 13.07C58.0106 13.4153 58.4446 13.8773 58.7433 14.456C59.0513 15.0253 59.2053 15.6413 59.2053 16.304C59.2053 16.416 59.2006 16.5327 59.1913 16.654C59.1819 16.766 59.1726 16.8593 59.1633 16.934H53.4933C53.5306 17.3073 53.6379 17.634 53.8153 17.914C54.0019 18.194 54.2353 18.4087 54.5153 18.558C54.8046 18.698 55.1126 18.768 55.4393 18.768C55.8126 18.768 56.1626 18.6793 56.4893 18.502C56.8253 18.3153 57.0539 18.0727 57.1753 17.774L58.7853 18.222C58.6079 18.5953 58.3513 18.9267 58.0153 19.216C57.6886 19.5053 57.3013 19.734 56.8533 19.902C56.4053 20.0607 55.9106 20.14 55.3693 20.14ZM53.4513 15.744H57.2873C57.2499 15.3707 57.1426 15.0487 56.9653 14.778C56.7973 14.498 56.5733 14.2833 56.2933 14.134C56.0133 13.9753 55.7006 13.896 55.3553 13.896C55.0193 13.896 54.7113 13.9753 54.4313 14.134C54.1606 14.2833 53.9366 14.498 53.7593 14.778C53.5913 15.0487 53.4886 15.3707 53.4513 15.744ZM60.3341 9.78H62.2101V17.648C62.2101 17.984 62.2661 18.2127 62.3781 18.334C62.4901 18.446 62.6441 18.502 62.8401 18.502C62.9895 18.502 63.1435 18.4833 63.3021 18.446C63.4608 18.4087 63.6008 18.362 63.7221 18.306L63.9741 19.734C63.7221 19.8553 63.4281 19.9487 63.0921 20.014C62.7561 20.0793 62.4528 20.112 62.1821 20.112C61.5941 20.112 61.1368 19.958 60.8101 19.65C60.4928 19.3327 60.3341 18.8847 60.3341 18.306V9.78ZM68.1935 20.14C67.6055 20.14 67.0735 20.042 66.5975 19.846C66.1215 19.6407 65.7155 19.3653 65.3795 19.02C65.0435 18.6653 64.7822 18.264 64.5955 17.816C64.4182 17.3587 64.3295 16.878 64.3295 16.374C64.3295 15.674 64.4835 15.0347 64.7915 14.456C65.1088 13.8773 65.5568 13.4153 66.1355 13.07C66.7235 12.7153 67.4142 12.538 68.2075 12.538C69.0102 12.538 69.6962 12.7153 70.2655 13.07C70.8348 13.4153 71.2688 13.8773 71.5675 14.456C71.8755 15.0253 72.0295 15.6413 72.0295 16.304C72.0295 16.416 72.0248 16.5327 72.0155 16.654C72.0062 16.766 71.9968 16.8593 71.9875 16.934H66.3175C66.3548 17.3073 66.4622 17.634 66.6395 17.914C66.8262 18.194 67.0595 18.4087 67.3395 18.558C67.6288 18.698 67.9368 18.768 68.2635 18.768C68.6368 18.768 68.9868 18.6793 69.3135 18.502C69.6495 18.3153 69.8782 18.0727 69.9995 17.774L71.6095 18.222C71.4322 18.5953 71.1755 18.9267 70.8395 19.216C70.5128 19.5053 70.1255 19.734 69.6775 19.902C69.2295 20.0607 68.7348 20.14 68.1935 20.14ZM66.2755 15.744H70.1115C70.0742 15.3707 69.9668 15.0487 69.7895 14.778C69.6215 14.498 69.3975 14.2833 69.1175 14.134C68.8375 13.9753 68.5248 13.896 68.1795 13.896C67.8435 13.896 67.5355 13.9753 67.2555 14.134C66.9848 14.2833 66.7608 14.498 66.5835 14.778C66.4155 15.0487 66.3128 15.3707 66.2755 15.744ZM72.6684 17.83C72.6684 17.354 72.799 16.9387 73.0604 16.584C73.331 16.22 73.7044 15.94 74.1804 15.744C74.6564 15.548 75.2024 15.45 75.8184 15.45C76.1264 15.45 76.439 15.4733 76.7564 15.52C77.0737 15.5667 77.349 15.6413 77.5824 15.744V15.352C77.5824 14.8853 77.4424 14.526 77.1624 14.274C76.8917 14.022 76.4857 13.896 75.9444 13.896C75.543 13.896 75.1604 13.966 74.7964 14.106C74.4324 14.246 74.0497 14.4513 73.6484 14.722L73.0464 13.49C73.5317 13.1727 74.0264 12.9347 74.5304 12.776C75.0437 12.6173 75.5804 12.538 76.1404 12.538C77.1857 12.538 77.9977 12.7993 78.5764 13.322C79.1644 13.8447 79.4584 14.5913 79.4584 15.562V17.9C79.4584 18.096 79.491 18.236 79.5564 18.32C79.631 18.404 79.7477 18.4553 79.9064 18.474V20C79.7384 20.028 79.5844 20.0513 79.4444 20.07C79.3137 20.0887 79.2017 20.098 79.1084 20.098C78.735 20.098 78.4504 20.014 78.2544 19.846C78.0677 19.678 77.951 19.4727 77.9044 19.23L77.8624 18.852C77.545 19.2627 77.1484 19.58 76.6724 19.804C76.1964 20.028 75.711 20.14 75.2164 20.14C74.731 20.14 74.2924 20.042 73.9004 19.846C73.5177 19.6407 73.2144 19.3653 72.9904 19.02C72.7757 18.6653 72.6684 18.2687 72.6684 17.83ZM77.2324 18.208C77.335 18.096 77.419 17.984 77.4844 17.872C77.5497 17.76 77.5824 17.6573 77.5824 17.564V16.822C77.3584 16.7287 77.1157 16.6587 76.8544 16.612C76.593 16.556 76.3457 16.528 76.1124 16.528C75.627 16.528 75.2257 16.6353 74.9084 16.85C74.6004 17.0553 74.4464 17.3307 74.4464 17.676C74.4464 17.8627 74.4977 18.04 74.6004 18.208C74.703 18.376 74.8524 18.5113 75.0484 18.614C75.2444 18.7167 75.4777 18.768 75.7484 18.768C76.0284 18.768 76.3037 18.7167 76.5744 18.614C76.845 18.502 77.0644 18.3667 77.2324 18.208ZM83.9134 20.14C83.2881 20.14 82.6908 20.0373 82.1214 19.832C81.5521 19.6267 81.0621 19.3233 80.6514 18.922L81.3234 17.704C81.7621 18.0587 82.1914 18.32 82.6114 18.488C83.0408 18.656 83.4514 18.74 83.8434 18.74C84.2074 18.74 84.4968 18.6747 84.7114 18.544C84.9354 18.4133 85.0474 18.2173 85.0474 17.956C85.0474 17.7787 84.9868 17.6433 84.8654 17.55C84.7441 17.4473 84.5668 17.3587 84.3334 17.284C84.1094 17.2093 83.8341 17.1253 83.5074 17.032C82.9661 16.8547 82.5134 16.682 82.1494 16.514C81.7854 16.346 81.5101 16.136 81.3234 15.884C81.1461 15.6227 81.0574 15.2913 81.0574 14.89C81.0574 14.4047 81.1788 13.9893 81.4214 13.644C81.6734 13.2893 82.0188 13.014 82.4574 12.818C82.9054 12.622 83.4281 12.524 84.0254 12.524C84.5481 12.524 85.0428 12.608 85.5094 12.776C85.9761 12.9347 86.4008 13.196 86.7834 13.56L86.0274 14.75C85.6541 14.4607 85.2994 14.2507 84.9634 14.12C84.6274 13.98 84.2868 13.91 83.9414 13.91C83.7454 13.91 83.5588 13.9333 83.3814 13.98C83.2134 14.0267 83.0734 14.106 82.9614 14.218C82.8588 14.3207 82.8074 14.47 82.8074 14.666C82.8074 14.8433 82.8541 14.9833 82.9474 15.086C83.0501 15.1793 83.1994 15.2633 83.3954 15.338C83.6008 15.4127 83.8481 15.4967 84.1374 15.59C84.7254 15.758 85.2201 15.9307 85.6214 16.108C86.0321 16.2853 86.3401 16.5047 86.5454 16.766C86.7508 17.018 86.8534 17.368 86.8534 17.816C86.8534 18.544 86.5874 19.1133 86.0554 19.524C85.5234 19.9347 84.8094 20.14 83.9134 20.14ZM91.5314 20.14C90.9434 20.14 90.4114 20.042 89.9354 19.846C89.4594 19.6407 89.0534 19.3653 88.7174 19.02C88.3814 18.6653 88.1201 18.264 87.9334 17.816C87.7561 17.3587 87.6674 16.878 87.6674 16.374C87.6674 15.674 87.8214 15.0347 88.1294 14.456C88.4467 13.8773 88.8947 13.4153 89.4734 13.07C90.0614 12.7153 90.7521 12.538 91.5454 12.538C92.3481 12.538 93.0341 12.7153 93.6034 13.07C94.1727 13.4153 94.6067 13.8773 94.9054 14.456C95.2134 15.0253 95.3674 15.6413 95.3674 16.304C95.3674 16.416 95.3627 16.5327 95.3534 16.654C95.3441 16.766 95.3347 16.8593 95.3254 16.934H89.6554C89.6927 17.3073 89.8001 17.634 89.9774 17.914C90.1641 18.194 90.3974 18.4087 90.6774 18.558C90.9667 18.698 91.2747 18.768 91.6014 18.768C91.9747 18.768 92.3247 18.6793 92.6514 18.502C92.9874 18.3153 93.2161 18.0727 93.3374 17.774L94.9474 18.222C94.7701 18.5953 94.5134 18.9267 94.1774 19.216C93.8507 19.5053 93.4634 19.734 93.0154 19.902C92.5674 20.0607 92.0727 20.14 91.5314 20.14ZM89.6134 15.744H93.4494C93.4121 15.3707 93.3047 15.0487 93.1274 14.778C92.9594 14.498 92.7354 14.2833 92.4554 14.134C92.1754 13.9753 91.8627 13.896 91.5174 13.896C91.1814 13.896 90.8734 13.9753 90.5934 14.134C90.3227 14.2833 90.0987 14.498 89.9214 14.778C89.7534 15.0487 89.6507 15.3707 89.6134 15.744ZM96.0623 16.332C96.0623 15.6227 96.2023 14.9833 96.4823 14.414C96.7623 13.8353 97.1496 13.378 97.6443 13.042C98.1389 12.706 98.7036 12.538 99.3383 12.538C99.8796 12.538 100.365 12.6733 100.794 12.944C101.233 13.2053 101.574 13.5413 101.816 13.952V9.78H103.692V17.9C103.692 18.096 103.725 18.236 103.79 18.32C103.856 18.404 103.968 18.4553 104.126 18.474V20C103.8 20.0653 103.534 20.098 103.328 20.098C102.992 20.098 102.712 20.014 102.488 19.846C102.274 19.678 102.152 19.4587 102.124 19.188L102.096 18.726C101.826 19.1833 101.457 19.5333 100.99 19.776C100.533 20.0187 100.052 20.14 99.5483 20.14C99.0443 20.14 98.5776 20.042 98.1483 19.846C97.7283 19.65 97.3596 19.3793 97.0423 19.034C96.7343 18.6887 96.4916 18.2873 96.3143 17.83C96.1463 17.3633 96.0623 16.864 96.0623 16.332ZM101.816 17.312V15.562C101.723 15.2913 101.574 15.0487 101.368 14.834C101.163 14.6193 100.934 14.4513 100.682 14.33C100.43 14.1993 100.178 14.134 99.9263 14.134C99.6369 14.134 99.3756 14.1947 99.1423 14.316C98.9089 14.4373 98.7036 14.6007 98.5263 14.806C98.3583 15.0113 98.2276 15.2493 98.1343 15.52C98.0503 15.7907 98.0083 16.0753 98.0083 16.374C98.0083 16.6727 98.0549 16.9573 98.1483 17.228C98.2509 17.4893 98.3956 17.718 98.5823 17.914C98.7689 18.11 98.9836 18.264 99.2263 18.376C99.4783 18.488 99.7489 18.544 100.038 18.544C100.216 18.544 100.393 18.516 100.57 18.46C100.757 18.3947 100.93 18.3107 101.088 18.208C101.256 18.096 101.401 17.9653 101.522 17.816C101.653 17.6573 101.751 17.4893 101.816 17.312ZM105.898 16.262V9.962H107.774V16.262H105.898ZM105.898 20V17.886H107.774V20H105.898Z" fill="white"/>
</g>
</svg>
