<svg width="279" height="31" viewBox="0 0 279 31" fill="none" xmlns="http://www.w3.org/2000/svg">
<g id="Right Nav">
<g id="Shopping Bag Icon">
<path id="Vector" d="M261 2L258 6V20C258 20.5304 258.211 21.0391 258.586 21.4142C258.961 21.7893 259.47 22 260 22H274C274.53 22 275.039 21.7893 275.414 21.4142C275.789 21.0391 276 20.5304 276 20V6L273 2H261Z" stroke="#C9CECF" stroke-linecap="round" stroke-linejoin="round"/>
<path id="Vector_2" d="M258 6H276" stroke="#C9CECF" stroke-linecap="round" stroke-linejoin="round"/>
<path id="Vector_3" d="M271 10C271 11.0609 270.579 12.0783 269.828 12.8284C269.078 13.5786 268.061 14 267 14C265.939 14 264.922 13.5786 264.172 12.8284C263.421 12.0783 263 11.0609 263 10" stroke="#C9CECF" stroke-linecap="round" stroke-linejoin="round"/>
</g>
<path id="Help" d="M208.184 7.06V17H206.924V12.478H201.45V17H200.19V7.06H201.45V11.358H206.924V7.06H208.184ZM213.482 17.14C212.931 17.14 212.427 17.042 211.97 16.846C211.522 16.6407 211.13 16.3653 210.794 16.02C210.467 15.6653 210.211 15.2593 210.024 14.802C209.847 14.3447 209.758 13.8593 209.758 13.346C209.758 12.6553 209.917 12.0253 210.234 11.456C210.551 10.8867 210.99 10.4293 211.55 10.084C212.119 9.73867 212.768 9.566 213.496 9.566C214.233 9.566 214.873 9.74333 215.414 10.098C215.965 10.4433 216.389 10.9007 216.688 11.47C216.996 12.03 217.15 12.6367 217.15 13.29C217.15 13.3833 217.145 13.4767 217.136 13.57C217.136 13.654 217.131 13.7193 217.122 13.766H211.06C211.097 14.242 211.228 14.6667 211.452 15.04C211.685 15.404 211.984 15.6933 212.348 15.908C212.712 16.1133 213.104 16.216 213.524 16.216C213.972 16.216 214.392 16.104 214.784 15.88C215.185 15.656 215.461 15.362 215.61 14.998L216.674 15.292C216.515 15.6467 216.277 15.964 215.96 16.244C215.652 16.524 215.283 16.7433 214.854 16.902C214.434 17.0607 213.977 17.14 213.482 17.14ZM211.018 12.912H216.002C215.965 12.436 215.829 12.016 215.596 11.652C215.363 11.288 215.064 11.0033 214.7 10.798C214.336 10.5927 213.935 10.49 213.496 10.49C213.067 10.49 212.67 10.5927 212.306 10.798C211.942 11.0033 211.643 11.288 211.41 11.652C211.186 12.016 211.055 12.436 211.018 12.912ZM218.547 6.78H219.779V15.11C219.779 15.5113 219.835 15.7587 219.947 15.852C220.059 15.9453 220.195 15.992 220.353 15.992C220.549 15.992 220.736 15.9733 220.913 15.936C221.091 15.8893 221.24 15.8427 221.361 15.796L221.557 16.804C221.352 16.888 221.109 16.958 220.829 17.014C220.549 17.07 220.302 17.098 220.087 17.098C219.611 17.098 219.233 16.9627 218.953 16.692C218.683 16.4213 218.547 16.0433 218.547 15.558V6.78ZM226.459 17.14C225.862 17.14 225.33 16.9907 224.863 16.692C224.397 16.3933 224.028 16.0153 223.757 15.558V19.982H222.525V9.692H223.617V11.064C223.907 10.616 224.285 10.2567 224.751 9.986C225.218 9.706 225.727 9.566 226.277 9.566C226.781 9.566 227.243 9.66867 227.663 9.874C228.083 10.0793 228.447 10.3593 228.755 10.714C229.063 11.0687 229.301 11.4747 229.469 11.932C229.647 12.38 229.735 12.8513 229.735 13.346C229.735 14.0367 229.595 14.6713 229.315 15.25C229.045 15.8287 228.662 16.2907 228.167 16.636C227.673 16.972 227.103 17.14 226.459 17.14ZM226.081 16.076C226.445 16.076 226.772 16.0013 227.061 15.852C227.36 15.6933 227.612 15.488 227.817 15.236C228.032 14.9747 228.195 14.6807 228.307 14.354C228.419 14.0273 228.475 13.6913 228.475 13.346C228.475 12.982 228.41 12.6367 228.279 12.31C228.158 11.9833 227.981 11.694 227.747 11.442C227.523 11.19 227.257 10.994 226.949 10.854C226.651 10.7047 226.324 10.63 225.969 10.63C225.745 10.63 225.512 10.672 225.269 10.756C225.036 10.84 224.812 10.9613 224.597 11.12C224.383 11.2693 224.201 11.442 224.051 11.638C223.902 11.834 223.804 12.044 223.757 12.268V14.354C223.897 14.6713 224.084 14.9607 224.317 15.222C224.551 15.4833 224.821 15.6933 225.129 15.852C225.437 16.0013 225.755 16.076 226.081 16.076Z" fill="#C9CECF"/>
<g id="Search">
<g id="Search Icon" clip-path="url(#clip0_5_47)">
<path id="Vector_4" d="M7.33333 17.6667C10.2789 17.6667 12.6667 15.2789 12.6667 12.3333C12.6667 9.38781 10.2789 7 7.33333 7C4.38781 7 2 9.38781 2 12.3333C2 15.2789 4.38781 17.6667 7.33333 17.6667Z" stroke="#C9CECF" stroke-linecap="round" stroke-linejoin="round"/>
<path id="Vector_5" d="M14 21L11.1 18.1" stroke="#C9CECF" stroke-linecap="round" stroke-linejoin="round"/>
</g>
<line id="Input border" x1="0.5" y1="30.5" x2="174.5" y2="30.5" stroke="#C9CECF" stroke-linecap="round"/>
<path id="Search&#226;&#128;&#166;" d="M31.028 10.146C30.916 10.0153 30.7667 9.88933 30.58 9.768C30.3933 9.64667 30.1833 9.53933 29.95 9.446C29.7167 9.34333 29.46 9.264 29.18 9.208C28.9093 9.14267 28.6247 9.11 28.326 9.11C27.5607 9.11 26.996 9.25467 26.632 9.544C26.268 9.83333 26.086 10.23 26.086 10.734C26.086 11.0887 26.1793 11.3687 26.366 11.574C26.5527 11.7793 26.8373 11.9473 27.22 12.078C27.612 12.2087 28.1067 12.344 28.704 12.484C29.3947 12.6333 29.992 12.8153 30.496 13.03C31 13.2447 31.3873 13.534 31.658 13.898C31.9287 14.2527 32.064 14.7287 32.064 15.326C32.064 15.802 31.9707 16.2173 31.784 16.572C31.6067 16.9173 31.3547 17.2067 31.028 17.44C30.7013 17.664 30.3187 17.832 29.88 17.944C29.4413 18.0467 28.9653 18.098 28.452 18.098C27.948 18.098 27.4533 18.0467 26.968 17.944C26.492 17.832 26.0393 17.6733 25.61 17.468C25.1807 17.2627 24.7793 17.006 24.406 16.698L25.008 15.634C25.1573 15.7927 25.3487 15.9513 25.582 16.11C25.8247 16.2593 26.0953 16.3993 26.394 16.53C26.702 16.6607 27.0333 16.768 27.388 16.852C27.7427 16.9267 28.1067 16.964 28.48 16.964C29.1893 16.964 29.74 16.838 30.132 16.586C30.524 16.3247 30.72 15.9467 30.72 15.452C30.72 15.0787 30.608 14.78 30.384 14.556C30.1693 14.332 29.8473 14.1453 29.418 13.996C28.9887 13.8467 28.466 13.6973 27.85 13.548C27.178 13.38 26.6133 13.198 26.156 13.002C25.6987 12.7967 25.3533 12.5307 25.12 12.204C24.896 11.8773 24.784 11.4527 24.784 10.93C24.784 10.2953 24.938 9.75867 25.246 9.32C25.554 8.88133 25.9787 8.55 26.52 8.326C27.0613 8.102 27.6727 7.99 28.354 7.99C28.802 7.99 29.2173 8.03667 29.6 8.13C29.992 8.22333 30.356 8.354 30.692 8.522C31.028 8.69 31.336 8.89067 31.616 9.124L31.028 10.146ZM36.7593 18.14C36.2086 18.14 35.7046 18.042 35.2473 17.846C34.7993 17.6407 34.4073 17.3653 34.0713 17.02C33.7446 16.6653 33.4879 16.2593 33.3013 15.802C33.1239 15.3447 33.0353 14.8593 33.0353 14.346C33.0353 13.6553 33.1939 13.0253 33.5113 12.456C33.8286 11.8867 34.2673 11.4293 34.8273 11.084C35.3966 10.7387 36.0453 10.566 36.7733 10.566C37.5106 10.566 38.1499 10.7433 38.6913 11.098C39.2419 11.4433 39.6666 11.9007 39.9653 12.47C40.2733 13.03 40.4273 13.6367 40.4273 14.29C40.4273 14.3833 40.4226 14.4767 40.4133 14.57C40.4133 14.654 40.4086 14.7193 40.3993 14.766H34.3373C34.3746 15.242 34.5053 15.6667 34.7293 16.04C34.9626 16.404 35.2613 16.6933 35.6253 16.908C35.9893 17.1133 36.3813 17.216 36.8013 17.216C37.2493 17.216 37.6693 17.104 38.0613 16.88C38.4626 16.656 38.7379 16.362 38.8873 15.998L39.9513 16.292C39.7926 16.6467 39.5546 16.964 39.2373 17.244C38.9293 17.524 38.5606 17.7433 38.1313 17.902C37.7113 18.0607 37.2539 18.14 36.7593 18.14ZM34.2953 13.912H39.2793C39.2419 13.436 39.1066 13.016 38.8733 12.652C38.6399 12.288 38.3413 12.0033 37.9773 11.798C37.6133 11.5927 37.2119 11.49 36.7733 11.49C36.3439 11.49 35.9473 11.5927 35.5833 11.798C35.2193 12.0033 34.9206 12.288 34.6873 12.652C34.4633 13.016 34.3326 13.436 34.2953 13.912ZM41.2227 15.886C41.2227 15.4193 41.3534 15.018 41.6147 14.682C41.8854 14.3367 42.2541 14.0707 42.7207 13.884C43.1874 13.6973 43.7287 13.604 44.3447 13.604C44.6714 13.604 45.0167 13.632 45.3807 13.688C45.7447 13.7347 46.0667 13.8093 46.3467 13.912V13.38C46.3467 12.82 46.1787 12.3813 45.8427 12.064C45.5067 11.7373 45.0307 11.574 44.4147 11.574C44.0134 11.574 43.6261 11.6487 43.2527 11.798C42.8887 11.938 42.5014 12.1433 42.0907 12.414L41.6427 11.546C42.1187 11.2193 42.5947 10.9767 43.0707 10.818C43.5467 10.65 44.0414 10.566 44.5547 10.566C45.4881 10.566 46.2254 10.8273 46.7667 11.35C47.3081 11.8633 47.5787 12.582 47.5787 13.506V16.6C47.5787 16.7493 47.6067 16.8613 47.6627 16.936C47.7281 17.0013 47.8307 17.0387 47.9707 17.048V18C47.8494 18.0187 47.7421 18.0327 47.6487 18.042C47.5647 18.0513 47.4947 18.056 47.4387 18.056C47.1494 18.056 46.9301 17.9767 46.7807 17.818C46.6407 17.6593 46.5614 17.4913 46.5427 17.314L46.5147 16.852C46.1974 17.2627 45.7821 17.58 45.2687 17.804C44.7554 18.028 44.2467 18.14 43.7427 18.14C43.2574 18.14 42.8234 18.042 42.4407 17.846C42.0581 17.6407 41.7594 17.37 41.5447 17.034C41.3301 16.6887 41.2227 16.306 41.2227 15.886ZM45.9827 16.404C46.0947 16.2733 46.1834 16.1427 46.2487 16.012C46.3141 15.872 46.3467 15.7553 46.3467 15.662V14.752C46.0574 14.64 45.7541 14.556 45.4367 14.5C45.1194 14.4347 44.8067 14.402 44.4987 14.402C43.8734 14.402 43.3647 14.528 42.9727 14.78C42.5901 15.0227 42.3987 15.3587 42.3987 15.788C42.3987 16.0213 42.4594 16.25 42.5807 16.474C42.7114 16.6887 42.8981 16.866 43.1407 17.006C43.3927 17.146 43.7007 17.216 44.0647 17.216C44.4474 17.216 44.8114 17.1413 45.1567 16.992C45.5021 16.8333 45.7774 16.6373 45.9827 16.404ZM53.4127 11.77C52.7967 11.7793 52.2507 11.938 51.7747 12.246C51.308 12.5447 50.9767 12.96 50.7807 13.492V18H49.5487V10.692H50.6967V12.386C50.9487 11.882 51.28 11.476 51.6907 11.168C52.1107 10.8507 52.5494 10.6733 53.0067 10.636C53.1 10.636 53.1794 10.636 53.2447 10.636C53.31 10.636 53.366 10.6407 53.4127 10.65V11.77ZM57.7046 18.14C57.1539 18.14 56.6499 18.042 56.1926 17.846C55.7446 17.6407 55.3526 17.3607 55.0166 17.006C54.6899 16.6513 54.4332 16.2453 54.2466 15.788C54.0692 15.3307 53.9806 14.8453 53.9806 14.332C53.9806 13.6413 54.1346 13.0113 54.4426 12.442C54.7506 11.8727 55.1846 11.42 55.7446 11.084C56.3046 10.7387 56.9532 10.566 57.6906 10.566C58.4092 10.566 59.0346 10.7293 59.5666 11.056C60.1079 11.3733 60.5092 11.8027 60.7706 12.344L59.5666 12.722C59.3799 12.3767 59.1186 12.1107 58.7826 11.924C58.4466 11.728 58.0732 11.63 57.6626 11.63C57.2146 11.63 56.8039 11.7467 56.4306 11.98C56.0666 12.2133 55.7772 12.5353 55.5626 12.946C55.3479 13.3473 55.2406 13.8093 55.2406 14.332C55.2406 14.8453 55.3479 15.312 55.5626 15.732C55.7866 16.1427 56.0806 16.4693 56.4446 16.712C56.8179 16.9547 57.2286 17.076 57.6766 17.076C57.9659 17.076 58.2412 17.0247 58.5026 16.922C58.7732 16.8193 59.0066 16.684 59.2026 16.516C59.4079 16.3387 59.5479 16.1473 59.6226 15.942L60.8266 16.306C60.6772 16.6607 60.4486 16.978 60.1406 17.258C59.8419 17.5287 59.4826 17.7433 59.0626 17.902C58.6519 18.0607 58.1992 18.14 57.7046 18.14ZM68.5645 18H67.3325V13.912C67.3325 13.1653 67.1972 12.6053 66.9265 12.232C66.6652 11.8587 66.2872 11.672 65.7925 11.672C65.4752 11.672 65.1532 11.756 64.8265 11.924C64.5092 12.092 64.2292 12.3207 63.9865 12.61C63.7438 12.89 63.5665 13.2167 63.4545 13.59V18H62.2225V7.78H63.4545V12.26C63.7438 11.7373 64.1358 11.3267 64.6305 11.028C65.1345 10.72 65.6758 10.566 66.2545 10.566C66.6932 10.566 67.0572 10.6453 67.3465 10.804C67.6452 10.9533 67.8832 11.168 68.0605 11.448C68.2378 11.728 68.3638 12.0547 68.4385 12.428C68.5225 12.792 68.5645 13.1933 68.5645 13.632V18ZM70.3823 18V16.432H71.4183V18H70.3823ZM72.4963 18V16.432H73.5183V18H72.4963ZM74.5963 18V16.432H75.6323V18H74.5963Z" fill="#949A9C"/>
</g>
</g>
<defs>
<clipPath id="clip0_5_47">
<rect width="16" height="16" fill="white" transform="translate(0 5)"/>
</clipPath>
</defs>
</svg>
