<svg width="49" height="32" viewBox="0 0 49 32" fill="none" xmlns="http://www.w3.org/2000/svg">
<g id="Label (Sale)">
<rect id="Rectangle 12" width="49" height="32" rx="2" fill="#C5295D"/>
<path id="Sale" d="M16.958 12.664C16.8927 12.5987 16.7713 12.51 16.594 12.398C16.426 12.286 16.216 12.1787 15.964 12.076C15.7213 11.9733 15.4553 11.8847 15.166 11.81C14.8767 11.726 14.5827 11.684 14.284 11.684C13.7613 11.684 13.3647 11.782 13.094 11.978C12.8327 12.174 12.702 12.4493 12.702 12.804C12.702 13.0747 12.786 13.2893 12.954 13.448C13.122 13.6067 13.374 13.742 13.71 13.854C14.046 13.966 14.466 14.0873 14.97 14.218C15.6233 14.3767 16.188 14.5727 16.664 14.806C17.1493 15.03 17.518 15.3287 17.77 15.702C18.0313 16.066 18.162 16.5513 18.162 17.158C18.162 17.69 18.064 18.1473 17.868 18.53C17.672 18.9033 17.4013 19.2067 17.056 19.44C16.7107 19.6733 16.3187 19.846 15.88 19.958C15.4413 20.0607 14.9747 20.112 14.48 20.112C13.9853 20.112 13.4907 20.0607 12.996 19.958C12.5013 19.8553 12.0253 19.7107 11.568 19.524C11.1107 19.328 10.6907 19.0947 10.308 18.824L11.162 17.158C11.246 17.242 11.3953 17.354 11.61 17.494C11.8247 17.6247 12.086 17.76 12.394 17.9C12.702 18.0307 13.038 18.1427 13.402 18.236C13.766 18.3293 14.1347 18.376 14.508 18.376C15.0307 18.376 15.4273 18.2873 15.698 18.11C15.9687 17.9327 16.104 17.6807 16.104 17.354C16.104 17.0553 15.9967 16.822 15.782 16.654C15.5673 16.486 15.2687 16.3413 14.886 16.22C14.5033 16.0893 14.0507 15.9493 13.528 15.8C12.9027 15.6227 12.38 15.4267 11.96 15.212C11.54 14.988 11.2273 14.708 11.022 14.372C10.8167 14.036 10.714 13.616 10.714 13.112C10.714 12.4307 10.8727 11.8613 11.19 11.404C11.5167 10.9373 11.9553 10.5873 12.506 10.354C13.0567 10.1113 13.668 9.99 14.34 9.99C14.8067 9.99 15.2453 10.0413 15.656 10.144C16.076 10.2467 16.468 10.382 16.832 10.55C17.196 10.718 17.5227 10.9 17.812 11.096L16.958 12.664ZM18.9086 17.83C18.9086 17.354 19.0393 16.9387 19.3006 16.584C19.5713 16.22 19.9446 15.94 20.4206 15.744C20.8966 15.548 21.4426 15.45 22.0586 15.45C22.3666 15.45 22.6793 15.4733 22.9966 15.52C23.3139 15.5667 23.5893 15.6413 23.8226 15.744V15.352C23.8226 14.8853 23.6826 14.526 23.4026 14.274C23.1319 14.022 22.7259 13.896 22.1846 13.896C21.7833 13.896 21.4006 13.966 21.0366 14.106C20.6726 14.246 20.2899 14.4513 19.8886 14.722L19.2866 13.49C19.7719 13.1727 20.2666 12.9347 20.7706 12.776C21.2839 12.6173 21.8206 12.538 22.3806 12.538C23.4259 12.538 24.2379 12.7993 24.8166 13.322C25.4046 13.8447 25.6986 14.5913 25.6986 15.562V17.9C25.6986 18.096 25.7313 18.236 25.7966 18.32C25.8713 18.404 25.9879 18.4553 26.1466 18.474V20C25.9786 20.028 25.8246 20.0513 25.6846 20.07C25.5539 20.0887 25.4419 20.098 25.3486 20.098C24.9753 20.098 24.6906 20.014 24.4946 19.846C24.3079 19.678 24.1913 19.4727 24.1446 19.23L24.1026 18.852C23.7853 19.2627 23.3886 19.58 22.9126 19.804C22.4366 20.028 21.9513 20.14 21.4566 20.14C20.9713 20.14 20.5326 20.042 20.1406 19.846C19.7579 19.6407 19.4546 19.3653 19.2306 19.02C19.0159 18.6653 18.9086 18.2687 18.9086 17.83ZM23.4726 18.208C23.5753 18.096 23.6593 17.984 23.7246 17.872C23.7899 17.76 23.8226 17.6573 23.8226 17.564V16.822C23.5986 16.7287 23.3559 16.6587 23.0946 16.612C22.8333 16.556 22.5859 16.528 22.3526 16.528C21.8673 16.528 21.4659 16.6353 21.1486 16.85C20.8406 17.0553 20.6866 17.3307 20.6866 17.676C20.6866 17.8627 20.7379 18.04 20.8406 18.208C20.9433 18.376 21.0926 18.5113 21.2886 18.614C21.4846 18.7167 21.7179 18.768 21.9886 18.768C22.2686 18.768 22.5439 18.7167 22.8146 18.614C23.0853 18.502 23.3046 18.3667 23.4726 18.208ZM27.4377 9.78H29.3137V17.648C29.3137 17.984 29.3697 18.2127 29.4817 18.334C29.5937 18.446 29.7477 18.502 29.9437 18.502C30.093 18.502 30.247 18.4833 30.4057 18.446C30.5643 18.4087 30.7043 18.362 30.8257 18.306L31.0777 19.734C30.8257 19.8553 30.5317 19.9487 30.1957 20.014C29.8597 20.0793 29.5563 20.112 29.2857 20.112C28.6977 20.112 28.2403 19.958 27.9137 19.65C27.5963 19.3327 27.4377 18.8847 27.4377 18.306V9.78ZM35.297 20.14C34.709 20.14 34.177 20.042 33.701 19.846C33.225 19.6407 32.819 19.3653 32.483 19.02C32.147 18.6653 31.8857 18.264 31.699 17.816C31.5217 17.3587 31.433 16.878 31.433 16.374C31.433 15.674 31.587 15.0347 31.895 14.456C32.2123 13.8773 32.6603 13.4153 33.239 13.07C33.827 12.7153 34.5177 12.538 35.311 12.538C36.1137 12.538 36.7997 12.7153 37.369 13.07C37.9383 13.4153 38.3723 13.8773 38.671 14.456C38.979 15.0253 39.133 15.6413 39.133 16.304C39.133 16.416 39.1283 16.5327 39.119 16.654C39.1097 16.766 39.1003 16.8593 39.091 16.934H33.421C33.4583 17.3073 33.5657 17.634 33.743 17.914C33.9297 18.194 34.163 18.4087 34.443 18.558C34.7323 18.698 35.0403 18.768 35.367 18.768C35.7403 18.768 36.0903 18.6793 36.417 18.502C36.753 18.3153 36.9817 18.0727 37.103 17.774L38.713 18.222C38.5357 18.5953 38.279 18.9267 37.943 19.216C37.6163 19.5053 37.229 19.734 36.781 19.902C36.333 20.0607 35.8383 20.14 35.297 20.14ZM33.379 15.744H37.215C37.1777 15.3707 37.0703 15.0487 36.893 14.778C36.725 14.498 36.501 14.2833 36.221 14.134C35.941 13.9753 35.6283 13.896 35.283 13.896C34.947 13.896 34.639 13.9753 34.359 14.134C34.0883 14.2833 33.8643 14.498 33.687 14.778C33.519 15.0487 33.4163 15.3707 33.379 15.744Z" fill="white"/>
</g>
</svg>
