<svg width="34" height="15" viewBox="0 0 34 15" fill="none" xmlns="http://www.w3.org/2000/svg">
<path fill-rule="evenodd" clip-rule="evenodd" d="M6.69643 2.12421C6.30966 2.5934 5.69084 2.96347 5.07202 2.91061C4.99467 2.2762 5.29764 1.60214 5.65217 1.18581C6.03893 0.703399 6.71576 0.359762 7.26368 0.333328C7.32814 0.994169 7.07674 1.64179 6.69643 2.12421ZM7.25718 3.03616C6.71201 3.00399 6.21457 3.20424 5.81277 3.36599C5.55421 3.47008 5.33525 3.55822 5.16867 3.55822C4.98173 3.55822 4.75373 3.46537 4.49774 3.36111C4.16231 3.2245 3.77882 3.06832 3.37667 3.07581C2.45489 3.08903 1.59756 3.62431 1.127 4.47679C0.160096 6.18176 0.875606 8.70617 1.81028 10.0939C2.26795 10.7812 2.81586 11.5346 3.53782 11.5081C3.85544 11.4958 4.08391 11.3965 4.32036 11.2936C4.59258 11.1752 4.87537 11.0521 5.31693 11.0521C5.74317 11.0521 6.01359 11.172 6.27318 11.287C6.52001 11.3963 6.75704 11.5014 7.10892 11.4949C7.85666 11.4817 8.32723 10.8076 8.78489 10.1204C9.27879 9.38273 9.49584 8.66284 9.52877 8.55359L9.53263 8.54096C9.53185 8.54015 9.52575 8.53729 9.515 8.53224L9.51498 8.53223C9.34987 8.45474 8.08793 7.86247 8.07583 6.27428C8.06368 4.94121 9.07677 4.2658 9.23625 4.15948L9.23628 4.15946C9.24597 4.153 9.2525 4.14864 9.25546 4.14637C8.61085 3.16833 7.60527 3.06259 7.25718 3.03616ZM12.4334 11.4222V1.11972H16.2043C18.151 1.11972 19.5112 2.49427 19.5112 4.50322C19.5112 6.51217 18.1252 7.89994 16.1528 7.89994H13.9933V11.4222H12.4334ZM13.9932 2.46783H15.7917C17.1453 2.46783 17.9189 3.20797 17.9189 4.50983C17.9189 5.81168 17.1453 6.55843 15.7852 6.55843H13.9932V2.46783ZM24.6616 10.1864C24.2491 10.9927 23.3402 11.5015 22.3604 11.5015C20.91 11.5015 19.898 10.616 19.898 9.2811C19.898 7.95942 20.8778 7.19946 22.6891 7.08711L24.6358 6.96816V6.39984C24.6358 5.56057 24.1008 5.10459 23.1468 5.10459C22.3604 5.10459 21.7867 5.52092 21.6706 6.15533H20.2654C20.3105 4.82043 21.5353 3.849 23.1919 3.849C24.9775 3.849 26.1378 4.80722 26.1378 6.29411V11.4222H24.6938V10.1864H24.6616ZM22.7793 10.279C21.9477 10.279 21.4191 9.86925 21.4191 9.24145C21.4191 8.59383 21.9284 8.21715 22.9017 8.15768L24.6357 8.04533V8.62687C24.6357 9.5917 23.8364 10.279 22.7793 10.279ZM30.9271 11.8253C30.3018 13.6294 29.5863 14.2242 28.0651 14.2242C27.949 14.2242 27.5623 14.211 27.472 14.1845V12.9488C27.5687 12.962 27.8072 12.9752 27.9297 12.9752C28.6194 12.9752 29.0062 12.6778 29.2447 11.9046L29.3865 11.4487L26.7436 3.94814H28.3745L30.2116 10.0345H30.2438L32.0809 3.94814H33.6667L30.9271 11.8253Z" fill="black"/>
</svg>
