<svg width="30" height="19" viewBox="0 0 30 19" fill="none" xmlns="http://www.w3.org/2000/svg">
<path fill-rule="evenodd" clip-rule="evenodd" d="M14.9053 16.4392C13.3266 17.7699 11.2787 18.5733 9.04092 18.5733C4.04776 18.5733 0 14.5737 0 9.63994C0 4.70619 4.04776 0.706604 9.04092 0.706604C11.2787 0.706604 13.3266 1.50994 14.9053 2.84066C16.484 1.50994 18.5319 0.706604 20.7697 0.706604C25.7628 0.706604 29.8106 4.70619 29.8106 9.63994C29.8106 14.5737 25.7628 18.5733 20.7697 18.5733C18.5319 18.5733 16.484 17.7699 14.9053 16.4392Z" fill="#ED0006"/>
<path fill-rule="evenodd" clip-rule="evenodd" d="M14.9053 16.4392C16.8492 14.8007 18.0818 12.3625 18.0818 9.63994C18.0818 6.91733 16.8492 4.47919 14.9053 2.84066C16.484 1.50993 18.5319 0.706604 20.7697 0.706604C25.7628 0.706604 29.8106 4.70619 29.8106 9.63994C29.8106 14.5737 25.7628 18.5733 20.7697 18.5733C18.5319 18.5733 16.484 17.7699 14.9053 16.4392Z" fill="#F9A000"/>
<path fill-rule="evenodd" clip-rule="evenodd" d="M14.9053 16.4392C16.8492 14.8006 18.0818 12.3625 18.0818 9.63992C18.0818 6.91733 16.8492 4.4792 14.9053 2.84067C12.9614 4.4792 11.7288 6.91733 11.7288 9.63992C11.7288 12.3625 12.9614 14.8006 14.9053 16.4392Z" fill="#FF5E00"/>
</svg>
